<?xml version="1.0" standalone="no"?>
<!DOCTYPE svg PUBLIC "-//W3C//DTD SVG 1.1//EN" "http://www.w3.org/Graphics/SVG/1.1/DTD/svg11.dtd" >
<svg xmlns="http://www.w3.org/2000/svg">
<metadata>Generated by IcoMoon</metadata>
<defs>
<font id="icomoon" horiz-adv-x="1024">
<font-face units-per-em="1024" ascent="960" descent="-64" />
<missing-glyph horiz-adv-x="1024" />
<glyph unicode="&#x20;" horiz-adv-x="512" d="" />
<glyph unicode="&#xe900;" glyph-name="NEMpi" d="M712.695 851.802c-0.066-1.73-0.185-3.456-0.185-5.186-0.009-95.663-0.009-191.327-0.009-286.99 0-1.711 0-3.423 0-5.679-5.57-0.199-10.852-0.076-16.123-0.095-5.471-0.024-10.942-0.005-16.412-0.005-5.338 0-10.671 0-16.009 0s-10.676 0-16.014 0c-5.466 0-10.937 0-16.412 0-5.329 0-10.667 0-16.005 0-5.343 0-10.676 0-16.014 0-5.471 0-10.937 0-16.408 0-5.31 0-10.615 0-16.185 0 0-25.728 0-51.006 0-76.753 131.906 0 263.789 0 395.525 0 0.91-3.252 1.176-33.768 0.431-40.263-40.988 0-82.034 0-122.946 0-0.924-3.219-1.161-74.060-0.318-79.863 21.893 0 43.861 0 65.83 0 22.002 0 44.008 0 65.754 0 0.356-0.299 0.469-0.375 0.559-0.474 0.085-0.1 0.194-0.199 0.223-0.313 0.085-0.384 0.19-0.777 0.19-1.171 0.014-98.062 0.019-196.124 0.009-294.191 0-0.517-0.156-1.043-0.289-1.825-113.493 0-226.949 0-340.627 0 0 99.281 0 198.353 0 297.889 51.138 0 102.144 0 153.382 0 0 26.7 0 52.911 0 79.113-3.034 0.858-474.453 1.261-482.935 0.431-0.796-2.792-1.128-75.62-0.318-83.176 5.471-0.024 11.017-0.062 16.569-0.071 5.608-0.019 11.207-0.005 16.815-0.005 5.599 0 11.202 0 16.811 0 5.736 0 11.473 0 17.209 0 5.604 0 11.207 0 16.811 0s11.207 0 16.811 0c5.604 0 11.207 0 16.811 0 5.57 0 11.15 0 16.967 0 0-99.442 0-198.5 0-297.543-2.916-0.863-335.123-1.138-340.655-0.256 0 99.020 0 198.087 0 297.709 5.49 0.028 11.032 0.071 16.578 0.081 5.604 0.019 11.207 0.009 16.806 0.009 5.608 0 11.212 0 16.811 0 5.608 0 11.207 0 16.811 0 5.466 0 10.942 0 16.408 0 5.604 0 11.212 0 16.811 0 5.608 0 11.207 0 16.811 0s11.207 0 16.811 0c5.585 0 11.164 0 16.664 0 0.877 3.134 1.138 77.113 0.322 83.271-8.401 0.484-16.891 0.152-25.368 0.209-8.405 0.066-16.806 0.019-25.216 0.019-8.538 0-17.076 0-25.614 0-8.543 0-17.081 0-25.619 0-8.405 0-16.811 0-25.216 0-8.538 0-17.076 0-25.614 0-8.405 0-16.811 0-25.216 0-8.514 0-17.029 0-25.837 0 0 13.521 0 26.643 0 40.159 156.459 0 312.775 0 468.964 0 0.972 3.162 1.18 71.969 0.275 76.923-46.692 0-93.459 0-140.781 0 0 2.105 0 3.797 0 5.49 0 70.177 0 140.354 0 210.536 0 25.747 0 51.499-0.014 77.246 0 1.588-0.161 3.181-0.247 4.764 113.944 0.009 227.883 0.009 341.831 0.009zM918.116 112.431c0.882 4.238 0.735 187.833-0.1 190.763-77.715 0-155.425 0-233.197 0 0-63.697 0-127.128 0-190.763 77.943 0 155.643 0 233.297 0zM658.669 607.55c0 63.844 0 127.147 0 190.412-7.4 0.891-230.997 0.498-233.756-0.37-0.744-7.225-0.422-187.022 0.375-190.042 77.691 0 155.43 0 233.382 0zM148.93 109.127c5.675-0.796 230.907-0.512 233.714 0.261 0 63.298 0 126.597 0 189.857-5.286 0.853-230.831 0.597-233.714-0.256 0-63.284 0-126.597 0-189.862zM513.171 755.963c-0.659 0.071-1.285 0.147-1.911 0.199-3.807 0.322-7.609 0.427-11.42 0.090-4.494-0.398-8.841-1.37-12.909-3.409-3.987-1.996-7.196-4.888-9.785-8.491-1.754-2.432-3.138-5.082-4.67-7.647-0.621-1.038-1.337-2.015-2.029-3.006-0.085-0.119-0.289-0.228-0.422-0.218-1.801 0.114-3.598 0.256-5.433 0.393 0.033 0.1 0.047 0.175 0.076 0.247 2.456 6.372 4.907 12.743 7.372 19.115 1.356 3.499 2.773 6.974 4.651 10.235 2.095 3.631 4.817 6.67 8.439 8.846 2.769 1.659 5.765 2.759 8.87 3.584 3.755 0.996 7.58 1.588 11.435 2.039 4.428 0.517 8.87 0.825 13.321 1.048 10.515 0.521 21.030 0.626 31.55 0.645 8.401 0.009 16.811-0.005 25.211-0.038 9.6-0.038 19.205-0.109 28.809-0.166 5.172-0.028 10.344-0.062 15.512-0.090 0.142 0 0.294 0 0.488 0 0.076-7.936 0.142-15.834 0.213-23.78-12.421 0.071-24.799 0.137-37.22 0.209-0.014-0.137-0.033-0.256-0.038-0.37-0.156-4.399-0.265-8.804-0.493-13.203-0.175-3.442-0.484-6.879-0.768-10.311-0.303-3.65-0.654-7.296-1-10.942-0.327-3.447-0.692-6.884-1.019-10.33-0.327-3.513-0.678-7.021-0.91-10.543-0.299-4.395-0.531-8.789-0.702-13.189-0.123-3.309-0.043-6.628 0.232-9.932 0.36-4.333 0.996-8.609 2.669-12.663 0.958-2.328 2.257-4.437 4.105-6.172 2.2-2.062 4.836-3.228 7.789-3.712 3.769-0.621 7.438-0.28 10.965 1.204 3.816 1.607 6.466 4.418 8.197 8.14 1.237 2.669 1.877 5.49 2.152 8.401 0.057 0.574 0.1 1.147 0.152 1.735 1.967 0 3.902 0 5.803 0 0-0.825 0.047-1.631-0.005-2.432-0.403-5.675-1.64-11.169-3.575-16.512-1.787-4.911-4.134-9.524-7.367-13.653-3.276-4.196-7.23-7.552-12.151-9.685-3.238-1.403-6.618-2.157-10.14-2.295-3.797-0.152-7.566 0.090-11.245 1.119-8.567 2.389-14.578 7.713-18.119 15.844-1.56 3.584-2.375 7.358-2.778 11.236-0.289 2.759-0.204 5.518-0.1 8.273 0.128 3.432 0.261 6.865 0.455 10.292 0.19 3.456 0.436 6.907 0.692 10.359 0.232 3.115 0.493 6.225 0.763 9.339 0.265 3.058 0.559 6.116 0.849 9.169 0.251 2.626 0.503 5.253 0.759 7.879 0.284 2.878 0.578 5.755 0.853 8.638 0.265 2.655 0.512 5.305 0.763 7.96 0.265 2.816 0.526 5.632 0.773 8.448 0.213 2.427 0.412 4.855 0.593 7.287 0.218 2.916 0.412 5.826 0.612 8.747 0.057 0.749 0.095 1.498 0.137 2.271-11.444 0-22.846 0-34.299 0-0.047-0.455-0.1-0.915-0.137-1.38-0.294-3.233-0.583-6.466-0.868-9.695-0.261-2.949-0.507-5.902-0.763-8.851-0.256-3.006-0.517-6.011-0.773-9.012-0.228-2.683-0.45-5.367-0.683-8.050-0.251-3.029-0.512-6.063-0.773-9.093-0.223-2.603-0.446-5.205-0.678-7.803-0.256-2.802-0.507-5.604-0.773-8.405-0.251-2.574-0.493-5.144-0.763-7.713-0.322-3.025-0.649-6.049-1.024-9.069-0.408-3.257-0.834-6.514-1.327-9.761-1.024-6.737-2.266-13.426-4.437-19.906-1.247-3.74-2.811-7.334-5.172-10.534-3.224-4.366-7.533-6.808-12.909-7.618-6.827-1.029-14.895 2.821-18.091 9.932-0.863 1.92-1.323 3.935-1.579 6.021-0.393 3.195 0.507 6.068 2.005 8.823 1.522 2.802 3.428 5.343 5.314 7.903 3.143 4.252 6.263 8.524 9.045 13.032 4.513 7.301 8.102 15.023 10.871 23.14 2.219 6.504 3.963 13.132 5.172 19.892 0.763 4.305 1.422 8.628 1.991 12.961 0.422 3.243 0.721 6.504 0.92 9.771 0.294 4.907 0.455 9.818 0.668 14.725 0.019 0.147 0.009 0.303 0.009 0.493z" />
<glyph unicode="&#xe901;" d="M422.94 446.246c0.024-1.455 0.009-2.916 0.090-4.371 0.095-1.778 0.427-3.465-1.479-4.783-0.692-0.474-0.877-2.020-0.891-3.077-0.057-3.048-1.195-5.66-2.882-8.069-0.479-0.687-1.233-1.455-1.982-1.617-2.072-0.446-4.2-0.725-6.315-0.82-2.328-0.1-4.665 0.071-7.002 0.137-1.906 0.062-2.778 0.83-3.1 2.797-0.161 0.991-0.147 2.015-0.337 3.001-0.498 2.579-0.237 4.708 3.048 5.234-1.394 1.157-1.394 1.157-3.968 1.602-0.247 2.408-0.678 4.93-0.735 7.462-0.133 5.935-0.028 11.88-0.152 17.82-0.047 2.337-0.412 4.674-0.687 7.012-0.18 1.531-1.043 2.475-2.641 2.517-5.239 0.128-10.463 1.223-15.73 0.076-2.669-0.588-3.404-0.801-3.755-3.484-0.507-3.868-0.905-7.808-0.782-11.695 0.218-6.613 0.545-13.193-0.247-19.797-0.204-1.711 0.322-3.527 0.626-5.272 0.332-1.92 0.351-3.755-0.763-5.452-1.323-2.029-3.086-2.963-5.599-2.764-3.219 0.256-6.462 0.204-9.695 0.313-1.858 0.066-3.214 0.853-3.707 2.778-0.166 0.649-0.526 1.289-0.517 1.929 0.062 5.144 0.18 10.287 0.308 15.431 0.028 1.228 0.228 2.456 0.228 3.679 0.024 8.059-0.346 16.137 0.147 24.168 0.346 5.651 0.247 11.193-0.033 16.839-0.389 7.908 0.479 15.872 0.55 23.813 0.128 13.668-0.090 27.349 0.119 41.017 0.147 9.5 1.057 18.996 1.081 28.497 0.028 9.486 1.18 19.044-0.981 28.463-0.147 0.635-0.133 1.346-0.014 1.996 2.076 11.71 2.451 19.148 2.56 30.805 0.057 5.959-1.299 11.961 0.199 17.877 0.54 2.133 0.028 4.257 0.393 6.386 0.398 2.304 0.536 4.665 0.654 7.012 0.114 2.351 0.047 4.703 0.071 7.059 0.081 8.059-0.076 16.128 0.379 24.164 0.166 2.892 0.019 5.897 0.825 8.775 0.199 0.711 0.028 1.522 0.028 2.456-0.436-0.465-0.706-0.744-1.441-1.512 0 1.389-0.384 2.735 0.066 3.119 2.28 1.982 1.816 4.679 2.095 7.135 0.175 1.527-0.308 3.119-0.28 4.679 0.052 2.446 0.166 4.902 0.484 7.329 0.247 1.929 1.1 3.603 0.341 5.822-0.555 1.626 0.635 3.816 0.915 5.774 0.223 1.531 0.213 3.1 0.351 4.646 0.175 1.996 0.427 3.987 0.588 5.983 0.123 1.541 0.128 3.086 0.223 4.632 0.062 1.109 0.199 2.209 0.28 3.314 0.090 1.323 0.152 2.645 0.223 3.973 0.043 0.773-0.123 1.621 0.152 2.295 0.64 1.56 0.545 3.271 0.962 4.76 1.029 3.712 1.356 7.704 3.527 11.060 0.242 0.37 0.503 0.796 0.545 1.214 0.441 4.181 2.797 7.652 5.016 10.856 2.399 3.465 5.684 6.428 10.69 6.353 6.727-0.1 13.431-0.299 20.101-1.247 1.655-0.237 3.356-0.161 5.035-0.204 4.399-0.109 7.699-1.697 10.434-5.532 2.612-3.66 3.162-7.893 4.949-11.714 1.512-3.224 0.863-6.718 1.868-9.97 0.261-0.82-0.517-1.911-0.559-2.887-0.076-1.749-0.156-3.546 0.175-5.234 0.156-0.815 1.157-1.602 1.963-2.124 0.853-0.55 2.176 0.45 1.697 1.204-1.588 2.475-0.398 4.869-0.175 7.301 0.043 0.417-0.043 0.887-0.199 1.28-2.271 5.627-1.948 11.292-0.303 16.986 0.436 1.508 0.318 2.072-0.73 4.499-0.194 0.446-0.133 1.119 0.043 1.598 0.849 2.257 1.337 4.494 0.322 6.841-0.166 0.375-0.1 0.877-0.057 1.313 0.228 2.541 0.621 5.077 0.687 7.618 0.218 8.059 0.095 16.128 0.55 24.168 0.242 4.21 1.095 8.457 2.252 12.525 1.176 4.172 2.697 8.329 4.698 12.169 3.631 6.969 7.808 13.668 14.962 17.659 1.906 1.062 4.167 1.522 6.296 2.143 12.919 3.778 24.021 0.104 33.944-8.325 0.512-0.431 1.048-0.92 1.346-1.493 2.418-4.66 4.926-9.287 7.149-14.047 3.66-7.865 4.262-16.403 4.878-24.889 0.337-4.651 0.275-9.335 0.493-13.999 0.1-2.171 1.413-4.309 0.062-6.509-0.119-0.199 0.123-0.631 0.218-0.953 0.569-2.157 1.138-4.314 1.692-6.409-0.071-0.038 0.204 0.024 0.28 0.18 1.588 3.532 2.835 7.268 4.817 10.562 2.697 4.489 5.907 8.704 10.496 11.539 1.024 0.631 2.219 1.157 3.394 1.346 5.969 0.958 11.951 1.811 17.944 2.65 2.039 0.284 3.987 0.047 5.841-1.033 0.934-0.545 2.072-0.815 3.153-1.067 3.053-0.711 5.371-2.214 7.348-4.836 2.916-3.849 4.466-8.225 6.111-12.62 0.161-0.417 0.417-0.872 0.365-1.28-0.588-4.651 1.636-8.695 2.74-12.98 0.36-1.403 0.588-2.844 0.849-4.271 0.593-3.371 1.28-6.737 1.74-10.131 0.559-4.196 1.489-8.448 1.247-12.615-0.322-5.509 0.678-10.823 1.114-16.223 0.071-0.872 0.27-1.825 0.697-2.569 2.209-3.854 1.64-7.704 0.351-11.672-0.531-1.65-0.687-3.456-0.815-5.205-0.156-2.114-0.209-4.248-0.128-6.362 0.175-4.357 0.446-8.713 0.735-13.065 0.066-0.872 0.493-1.707 0.645-2.584 0.133-0.744 0.199-1.522 0.133-2.271-0.152-1.977-0.673-3.968-0.555-5.926 0.507-8.936 1.18-17.863 1.811-26.795 0.043-0.668 0.066-1.389 0.332-1.977 1.692-3.655 1.64-7.614 2.062-11.487 0.104-0.977 0.185-2.143-0.232-2.963-1.356-2.636-0.384-5.073 0.45-7.462 0.683-1.953 1.289-3.807 0.512-5.845-0.081-0.209-0.213-0.488-0.133-0.645 1.346-2.83-0.507-5.367-0.635-8.012-0.156-3.091-0.702-6.537 1.877-9.207 0.341-0.351 0.498-0.981 0.555-1.498 0.773-6.67 1.299-13.336 1.266-20.077-0.028-5.689 0.692-11.383 1.090-17.076 0.498-7.031 1-14.066 1.536-21.092 0.090-1.214 0.166-2.252 0.991-3.503 0.986-1.489 1.289-4.082 0.721-5.807-1.090-3.285-0.393-6.428-0.251-9.619 0.209-4.575 0.678-9.135 1.019-13.705 0.384-5.020 0.735-10.041 1.147-15.057 0.057-0.64 0.45-1.247 0.621-1.882 0.365-1.403 0.905-2.802 1-4.229 0.351-5.58 0.322-11.198 0.891-16.759 0.507-5.077 0.427-10.221 2.076-15.227 0.749-2.261 0.341-5.115-0.237-7.538-0.488-2.053-0.806-3.954-0.081-5.888 0.55-1.46 0.574-2.807 0.066-4.248-0.687-1.929-0.768-3.774-0.19-5.879 0.74-2.721 1.555-5.594-0.318-8.429-0.934-1.408-1.787-2.076-3.47-1.967-4.233 0.284-8.467 0.465-12.7 0.645-2.342 0.1-2.47 0.408-3.527 2.712-0.915 2.010-1.901 3.996-1.574 6.187 0.811 5.419 0.299 10.861 0.171 16.261-0.137 6.116-1.171 12.207-1.906 18.304-0.294 2.46-1.038 3.115-3.347 3.47-2.423 0.365-4.859 1.024-7.258 0.92-3.209-0.133-6.395-0.849-9.581-1.38-1.275-0.213-1.863-1.124-1.939-2.394-0.128-2.119-0.408-4.238-0.389-6.357 0.071-7.040 0.261-14.080 0.365-21.125 0.052-3.228 0.123-6.471-0.066-9.685-0.123-1.991-0.593-3.992-1.171-5.902-0.517-1.688-1.65-2.247-3.105-1.489-3.456 1.778-6.869 0.346-10.074-0.356-4.357-0.953-6.296-0.005-6.495 4.561-0.038 0.891-0.005 1.783-0.341 2.712-0.161-1.356-0.318-2.716-0.484-4.077-0.185-0.009-0.375-0.024-0.564-0.033-0.175 1.342-0.593 2.702-0.493 4.020 0.578 7.727-1.038 15.36-0.868 23.073 0.090 4.101-0.36 8.22-0.649 12.331-0.408 5.798-0.901 11.586-1.342 17.38-0.228 2.897-0.389 5.803-0.602 8.695-0.616 8.367-1.256 16.73-1.858 25.097-0.299 4.243-0.564 8.486-0.801 12.734-0.303 5.585-0.517 11.179-0.872 16.759-0.303 5.020-0.749 10.031-1.133 15.047-0.232 3.010-0.469 6.025-0.692 9.041-0.218 2.892-0.313 5.751-1.64 8.495-0.645 1.313-0.517 3.077-0.465 4.627 0.18 4.983-0.299 9.851-2.005 14.559-0.503 1.394-0.55 2.56 0.228 4.068 1.043 2.034 1.545 4.343 0.109 6.713-1.527 2.532-0.559 5.476-0.711 8.235-0.133 2.56 0.223 5.144 0.057 7.704-0.152 2.47-1.209 3.807-2.361 3.442-1.678-0.536-1.858-2.067-1.92-3.556-0.038-1.119-0.047-2.242 0.005-3.361 0.194-4.001 0.526-8.002 0.593-12.004 0.109-6.912 0.009-13.829 0.109-20.741 0.057-3.565 0.365-7.125 0.54-10.686 0.142-2.901 0.289-5.803 0.37-8.709 0.18-6.258 0.365-12.511 0.474-18.769 0.066-3.465-0.085-6.936-0.019-10.401 0.185-9.946 0.431-19.897 0.649-29.843 0.218-9.941 0.422-19.883 0.659-29.824 0.213-8.846 0.45-17.683 0.702-26.529 0.028-1 0.27-1.991 0.393-2.991 0.204-1.678 1.029-2.475 2.821-2.669 3.105-0.332 3.342-0.725 3.456-3.75 0.033-0.782 0.038-1.569 0.019-2.351-0.076-3.219-0.375-3.698-3.532-4.077-1.873-0.223-2.527-1.109-2.522-2.835 0.005-2.242-0.019-4.485-0.071-6.727-0.005-0.493-0.18-0.991-0.545-1.479-0.507 2.551 0.46 5.248-1.171 8.296-0.242-4.67-0.455-8.704-0.687-13.122-8.401 0.232-16.593 0.46-25.263 0.692-0.403 1.877-1.114 4.011-1.275 6.182-0.365 5.011-0.517 10.041-0.626 15.071-0.024 1.403 0.649 2.816 0.668 4.229 0.019 1.944-0.209 3.897-0.441 5.831-0.237 2.001-0.668 3.973 0.455 5.879 0.19 0.327 0.185 0.863 0.085 1.256-0.474 1.944-1.086 3.854-1.517 5.812-0.341 1.574-1.204 2.332-2.811 2.252-0.223-0.014-0.446-0.066-0.668-0.076-3.328-0.137-6.732-0.607-9.491 2.37-1.512-2.295-3.527-2.783-5.893-2.807-2.641-0.028-3.096-0.569-3.124-3.266-0.076-6.277 0.052-12.553-0.066-18.83-0.081-4.452-0.455-8.898-0.602-13.355-0.052-1.669 0.052-3.361 0.28-5.016 0.275-1.991-0.043-3.812-1.18-5.433-0.356-0.517-0.953-1.138-1.498-1.204-2.626-0.299-5.257-0.446-7.893-0.607-3.328-0.199-6.665-0.379-9.998-0.531-1.105-0.052-2.238-0.095-3.328 0.057-1.655 0.223-2.603 1.275-2.636 2.958-0.047 2.972-0.009 5.95 0.574 9.079 0.28-0.403 0.545-0.801 0.934-1.37 0.076 0.137 0.218 0.289 0.223 0.441 0.052 2.854 0.047 2.854-2.067 3.612 0 4.072 0.047 8.301-0.014 12.535-0.090 6.827-0.303 13.653-0.337 20.475-0.019 3.575 0.346 7.154 0.332 10.728-0.009 3.352-0.356 6.699-0.427 10.046-0.1 4.584 0.033 9.169-0.133 13.743-0.1 2.66-0.621 5.305-0.891 7.96-0.147 1.436-0.275 2.892-0.218 4.333 0.1 2.328 0.531 4.646 0.521 6.969-0.024 8.055-0.152 16.114-0.275 24.173-0.133 8.732-0.228 17.47-0.484 26.193-0.133 4.456-0.678 8.898-0.877 13.359-0.322 7.035-0.602 14.080-0.725 21.12-0.076 4.025 0.512 8.078 0.218 12.079-0.488 6.609 0.27 13.184 0.047 19.769-0.204 5.926-0.503 11.852-0.664 17.783-0.1 3.47 0.076 6.945-0.014 10.415-0.161 6.49-0.408 12.971-0.668 19.456-0.033 0.825-0.341 1.645-1.114 2.489-0.166-0.536-0.365-1.062-0.493-1.602-2.091-8.974-2.74-18.086-2.953-27.278-0.204-8.723-0.853-17.432-1.147-26.155-0.209-6.044-0.119-12.103-0.237-18.152-0.156-7.945-0.531-15.886-0.555-23.832-0.024-8.614-0.863-17.185-1.195-25.78-0.247-6.253-0.119-12.525-0.218-18.788-0.218-13.317-0.45-26.638-0.735-39.95-0.1-4.584-0.488-9.164-0.526-13.748-0.043-5.585 0.256-11.169 0.223-16.754-0.038-7.391-0.27-14.777-0.379-22.168-0.090-5.703-0.185-11.406-0.166-17.105 0.014-5.812 0.204-11.629 0.228-17.441 0.009-1.811 0.436-3.295 2.005-4.324-0.009-0.484-0.019-0.962-0.024-1.446zM508.255 737.441c-0.161-0.024-0.318-0.047-0.484-0.076 0-0.773-0.024-1.545 0.009-2.318 0.185-4.907 0.46-9.813 0.559-14.725 0.194-9.719 0.237-19.447 0.436-29.17 0.161-7.595 0.422-15.189 0.716-22.779 0.085-2.209 0.389-4.423 2.053-6.201 2.048 0.393 2.129 1.892 2.062 3.356-0.213 4.783-0.417 9.572-0.763 14.341-0.702 9.785-1.527 19.57-2.247 29.355-0.607 8.353-1.124 16.716-1.726 25.069-0.081 1.057-0.408 2.1-0.616 3.148zM429.54 728.676c-1.38-3.295-1.38-3.295 0-5.295 0 1.858 0 3.579 0 5.295zM436.584 454.855c0.199-0.005 0.389-0.014 0.583-0.024-0.090 1.365-0.175 2.731-0.265 4.091-0.104 0-0.213-0.005-0.318-0.009 0-1.346 0-2.707 0-4.058zM505.737 796.103c0.156-0.019 0.299-0.038 0.46-0.057 0.156 0.91 0.318 1.816 0.479 2.731-0.199 0.024-0.403 0.052-0.602 0.081-0.109-0.924-0.223-1.839-0.337-2.754zM419.47 431.497c-0.171 0.228-0.327 0.441-0.493 0.654-0.1-0.142-0.289-0.294-0.289-0.431 0-0.175 0.161-0.351 0.251-0.526 0.147 0.081 0.294 0.166 0.531 0.303z" />
<glyph unicode="&#xe902;" d="M692.651 253.303c-23.059-15.749-39.993-45.374-59.273-65.683-17.484-18.408-17.38-21.068-16.74-44.952 0.223-8.429 3.736-60.696-0.555-63.123-17.389 9.368-84.613-14.146-92.828 9.903-12.639 36.935-2.721 102.865-1.683 142.018 0.773 30.753 38.907 17.242 65.493 17.854 35.489 0.782 43.819 29.72 67.214 52.248 47.095 45.393 95.185 107.985 148.38 141.971 17.304 11.183 34.489-39.476 29.966-37.485-8.457-16.645-24.201-37.447-38.438-48.54 3.461 6.481 7.618 11.942 13.084 16.929-2.56 0.047-20.196-20.29-19.631-23.078 2.143 2.091 4.333 4.143 6.556 6.158-4.836-6.822-37.338-42.861-36.371-42.861-0.052-0.076-15.706-11.913-13.53-10.913 12.696 18.133-19.11-17.636-25.107-20.722-7.979-4.229-20.722-22.528-26.539-29.724-0.792-0.54 0.915 1.133 0 0zM657.109 219.743c1.171-1.474 4.926 3.821 0 0 0.194-0.247 0.687 0.531 0 0zM665.799 227.143c0.863-0.815 2.726 2.863 0 0 0.133-0.119 0.375 0.389 0 0zM685.416 246.315c-1.090 0.569-0.759-1.256 0 0-0.156 0.085-0.104-0.18 0 0zM672.54 233.349c-0.441 1.057-1.617-0.37 0 0-0.104 0.251-0.275-0.066 0 0z" />
<glyph unicode="&#xe903;" d="M273.735 487.358c-0.228 0.958-0.161 2.081-0.616 2.37-1.835 1.133-1.574 2.825-1.512 4.48 0.356 8.941 0.91 17.877 1.062 26.828 0.166 9.932-0.081 19.864-0.033 29.8 0.009 2.517 0.019 5.035 2.11 7.159 0.91 0.929 0.806 2.854 1.247 4.665-0.891-0.223-1.304-0.327-1.967-0.493 0.559 3.693-0.228 7.249 0.436 10.956 0.763 4.224 0.412 8.666 0.408 13.013 0 1.991 0.261 3.774 1.873 4.949-0.536 0.631-1.399 1.237-1.304 1.607 0.199 0.796 0.891 1.47 1.46 2.313-0.446 0.763-0.962 1.489-1.299 2.295-0.247 0.593-0.578 1.64-0.318 1.873 1.929 1.745 0.602 3.532 0.417 5.4-0.232 2.375-0.569 4.855 1.090 7.097 0.777 1.048 0.815 2.489-0.062 3.802-0.721 1.071-0.782 2.133 0.081 3.399 0.616 0.905 0.773 2.285 0.735 3.442-0.071 2.105-0.83 4.243-0.593 6.281 0.322 2.797 0.1 5.717 1.432 8.401 0.626 1.261 1.266 2.901 0.981 4.162-0.868 3.845 0.602 7.381 1.455 10.837 0.735 2.991 3.086 5.599 4.831 8.311 0.303 0.479 1.109 0.773 1.735 0.891 3.172 0.621 6.338 1.37 9.548 1.664 3.897 0.351 7.827 0.261 11.743 0.422 4.063 0.171 9.088-3.015 11.098-6.888 1.176-2.266 2.726-4.338 3.93-6.59 0.664-1.237 1.048-2.65 1.399-4.030 0.408-1.583 0.64-3.214 1.109-5.637 0.73 1.048 0.972 1.389 1.432 2.048 0.484-0.868 1.204-1.579 1.228-2.313 0.109-3.518 2.266-6.438 2.735-9.823 0.46-3.319 1.138-6.642 1.185-9.97 0.085-5.476-0.275-10.961-0.412-16.441-0.104-4.139-0.147-8.273-0.228-12.411-0.223-11.529-0.45-23.049-0.683-34.579-0.009-0.559 0.033-1.138-0.085-1.673-1.764-7.922-0.939-15.972-1.233-23.969-0.199-5.362-0.526-10.728-0.607-16.090-0.119-8.292-0.052-16.583-0.114-24.87-0.014-1.673-0.284-3.347-0.346-5.020-0.085-2.119-0.318-4.271-0.052-6.357 0.346-2.697 0.275-5.267-0.137-7.979-0.484-3.143-0.119-6.414-0.114-9.628 0-8.282 0.009-16.569 0.009-24.851 0.005-0.673 0.18-1.417-0.043-2.005-1.555-4.049-0.299-8.187-0.55-12.264-0.45-7.362 0.161-14.715-0.109-22.059-0.071-1.892 0.555-3.115 1.967-4.589 2.228-2.313 4.115-5.229 3.556-8.78-0.806-0.152-1.73-0.062-1.934-0.398-1.095-1.854-1.498-4.172-3.992-4.983-0.375-0.119-0.559-1.185-0.631-1.835-0.28-2.669-0.645-5.338-0.673-8.007-0.047-3.845-1.678-5.267-5.495-4.57-1.176 0.213-2.399 0.228-3.598 0.194-2.451-0.071-4.205 0.337-5.665 2.935-1.56 2.769-2.432 5.428-2.456 8.524-0.009 1.214-0.479 2.413-0.664 3.631-0.218 1.432-0.521 2.882-0.493 4.319 0.142 8.277 0.379 16.55 0.564 24.827 0.019 0.896-0.028 1.792-0.085 2.683-0.071 1.166-0.697 2.029-1.868 1.972-4.556-0.213-9.097 1.166-13.672 0.043-1.896-0.469-3.304-1.304-3.93-3.224-0.066-0.213-0.123-0.45-0.261-0.616-2.337-2.825-2.645-5.623-1.346-9.263 0.858-2.418-0.251-5.509-0.393-8.296-0.284-5.684-0.408-11.378-0.796-17.057-0.213-3.105-0.735-6.201-1.327-9.259-0.128-0.668-1.119-1.607-1.768-1.655-2.66-0.185-5.333-0.1-8.002-0.052-0.408 0.005-0.815 0.322-1.441 0.597-0.256 2.797-0.512 5.651-0.773 8.505-0.062 0.668 0.152 1.617-0.209 1.958-2.295 2.2-0.55 4.418-0.412 6.722 0.204 3.532 0.896 7.225-1.010 10.638-0.341 0.602-0.166 1.512-0.166 2.28-0.009 6.585 0 13.175-0.019 19.764-0.005 1.342-0.171 2.688-0.137 4.025 0.175 7.381 0.507 14.748 0.559 22.13 0.047 6.694-0.209 13.397-0.294 20.096-0.009 0.929 0.194 1.868 0.839 2.783 0.161-0.697 0.327-1.394 0.488-2.091 0.147 2.105 0.673 4.058-0.697 6.125-0.678 1.019-0.161 3.432 0.631 4.698 1.655 2.65 0.958 5.438 1.161 8.164 0.043 0.517-1.105 1.033-1.384 1.688-0.313 0.74-0.313 1.636-0.303 2.465 0 0.123 0.91 0.213 1.778 0.384zM273.839 527.848c0.081 0.005 0.161 0.005 0.242 0.005 0 1.446 0 2.892 0 4.338-0.085-0.005-0.161-0.005-0.242-0.005 0-1.446 0-2.892 0-4.338zM272.725 427.273c-0.071 0-0.142 0-0.218 0.005 0-0.801 0-1.598 0-2.399 0.076 0 0.147 0 0.218 0 0 0.796 0 1.593 0 2.394zM273.854 536.424c0.119 0.009 0.232 0.014 0.351 0.024-0.043 0.612-0.085 1.223-0.128 1.835-0.076-0.009-0.152-0.024-0.223-0.033 0-0.607 0-1.218 0-1.825zM272.375 458.472c0.18 0.028 0.36 0.062 0.536 0.095-0.109 0.578-0.213 1.157-0.318 1.74-0.076-0.612-0.152-1.223-0.218-1.835z" />
<glyph unicode="&#xe904;" d="M828.454 399.132c0.692 0.924 1.389 1.858 2.076 2.783 0.213 0.005 0.498 0.1 0.621 0 1.015-0.872-0.019-1.403-0.493-1.678-0.702-0.403-0.664-2.446-2.204-1.105z" />
<glyph unicode="&#xe905;" d="M422.94 446.246c0.005 0.488 0.014 0.962 0.024 1.451 2.015-1.214 1.204-3.063 0.929-4.807-0.318 1.119-0.635 2.238-0.953 3.356z" />
<glyph unicode="&#xe906;" d="M508.255 737.441c0.209-1.048 0.536-2.091 0.616-3.148 0.602-8.353 1.119-16.716 1.726-25.069 0.716-9.785 1.541-19.565 2.247-29.355 0.346-4.774 0.55-9.557 0.763-14.341 0.071-1.465-0.014-2.963-2.062-3.356-1.664 1.778-1.967 3.992-2.053 6.201-0.299 7.595-0.555 15.185-0.716 22.779-0.199 9.723-0.242 19.451-0.436 29.17-0.1 4.916-0.375 9.823-0.559 14.725-0.033 0.773-0.009 1.545-0.009 2.318 0.166 0.024 0.322 0.052 0.484 0.076z" />
<glyph unicode="&#xe907;" d="M429.54 728.676c0-1.716 0-3.437 0-5.295-1.38 1.996-1.38 1.996 0 5.295z" />
<glyph unicode="&#xe908;" d="M436.584 454.855c0 1.351 0 2.707 0 4.058 0.104 0.005 0.213 0.009 0.318 0.009 0.090-1.361 0.175-2.726 0.265-4.091-0.194 0.009-0.384 0.019-0.583 0.024z" />
<glyph unicode="&#xe909;" d="M505.737 796.103c0.114 0.915 0.228 1.835 0.332 2.754 0.199-0.028 0.403-0.057 0.602-0.081-0.156-0.91-0.318-1.816-0.479-2.731-0.156 0.014-0.299 0.033-0.455 0.057z" />
<glyph unicode="&#xe90a;" d="M419.47 431.497c-0.237-0.133-0.384-0.223-0.531-0.303-0.090 0.175-0.251 0.351-0.251 0.526 0 0.137 0.19 0.289 0.289 0.431 0.166-0.218 0.322-0.431 0.493-0.654z" />
<glyph unicode="&#xe90b;" d="M798.217 364.231c-0.839-1.294-1.707-2.574-2.508-3.887-0.555-0.92-1.019-1.892-1.522-2.844l0.009 0.009c-2.332-0.678-3.385-2.721-4.76-4.423-0.507-0.64-1.029-1.266-1.797-1.735-0.346 1.716 0.237 2.878 1.479 4.044 1.498 1.408 2.555 3.285 4.034 4.722 1.555 1.512 3.38 2.75 5.087 4.105l-0.024 0.009z" />
<glyph unicode="&#xe90c;" d="M771.333 331.951c-1.574-1.797-3.153-3.598-4.727-5.395 0.469 2.773 2.257 4.39 4.727 5.395z" />
<glyph unicode="&#xe90d;" d="M799.573 366.241c0.981 2.74 3.361 4.233 5.385 6.049l-0.019 0.014c-0.901-2.807-3.176-4.399-5.376-6.049l0.009-0.014z" />
<glyph unicode="&#xe90e;" d="M766.616 326.571c-0.45-2.252-1.958-3.589-3.911-4.551 1.304 1.517 2.612 3.034 3.911 4.551z" />
<glyph unicode="&#xe90f;" d="M747.117 307.726c0.422 1.199 0.844 2.404 1.271 3.608 0.578-1.645-0.142-2.712-1.285-3.593l0.014-0.014z" />
<glyph unicode="&#xe910;" d="M804.959 372.29c0.128 1.289 0.725 2.167 2.309 2.138-0.773-0.706-1.545-1.417-2.328-2.124l0.019-0.014z" />
<glyph unicode="&#xe911;" d="M665.799 227.143c2.726 2.863 0.863-0.815 0 0 0.375 0.389 0.133-0.119 0 0z" />
<glyph unicode="&#xe912;" d="M798.236 364.222c-1.261 1.806 0.759 1.441 1.337 2.020l-0.009 0.014c-0.45-0.673-0.896-1.346-1.346-2.024l0.019-0.009z" />
<glyph unicode="&#xe913;" d="M685.416 246.315c-0.759-1.256-1.090 0.569 0 0-0.104-0.18-0.156 0.085 0 0z" />
<glyph unicode="&#xe914;" d="M672.54 233.349c-1.617-0.37-0.441 1.057 0 0-0.275-0.066-0.104 0.251 0 0z" />
<glyph unicode="&#xe915;" d="M273.839 527.848c0 1.446 0 2.892 0 4.338 0.081 0 0.161 0 0.242 0.005 0-1.446 0-2.892 0-4.338-0.085 0-0.161 0-0.242-0.005z" />
<glyph unicode="&#xe916;" d="M272.725 427.273c0-0.801 0-1.598 0-2.394-0.071 0-0.142 0-0.218 0 0 0.801 0 1.598 0 2.399 0.076-0.005 0.147-0.005 0.218-0.005z" />
<glyph unicode="&#xe917;" d="M273.854 536.424c0 0.607 0 1.214 0 1.825 0.076 0.009 0.147 0.024 0.223 0.033 0.043-0.612 0.085-1.223 0.128-1.835-0.119-0.009-0.232-0.014-0.351-0.024z" />
<glyph unicode="&#xe918;" d="M272.375 458.472c0.071 0.612 0.142 1.223 0.218 1.835 0.104-0.583 0.209-1.161 0.318-1.74-0.18-0.033-0.36-0.066-0.536-0.095z" />
<glyph unicode="&#xe919;" glyph-name="raspberry-pi" d="M679.969 916.717c4.129-2.11 8.239-4.257 12.407-6.286 0.631-0.303 1.669-0.289 2.304 0.014 14.146 6.741 27.733 4.76 40.946-2.645 1.925-1.081 3.674-1.313 5.935-1.114 5.020 0.45 10.112 0.531 15.128 0.133 3.641-0.294 6.656-2.47 8.595-5.679 0.891-1.455 1.887-1.835 3.489-1.768 8.647 0.365 17.261 0.185 25.519-2.92 5.129-1.929 9.5-4.869 12.9-9.273 0.659-0.849 2.081-1.408 3.224-1.531 4.072-0.436 8.306-0.090 12.26-1.010 13.696-3.191 20.324-15.417 16.545-29.833-0.166-0.649-0.232-1.375-0.564-1.925-2.721-4.485-1.74-8.742 0.194-13.274 4.39-10.316 2.304-19.883-4.233-28.653-1.242-1.669-1.574-3.134-1.090-5.253 1.896-8.51-1.157-16.019-5.239-23.244-0.232-0.417-0.493-0.82-0.787-1.199-3.285-4.409-5.011-8.818-4.537-14.862 0.759-9.723-4.973-16.981-12.544-22.623-1.455-1.076-2.057-2.152-2.204-3.968-1.214-14.445-9.6-23.993-21.594-30.914-1.972-1.143-3.129-2.451-3.778-4.627-3.897-13.146-13.933-19.636-26.159-23.509-2.769-0.882-4.399-1.991-5.239-5.020-2.361-8.405-8.434-13.497-16.36-16.479-4.352-1.636-8.841-2.878-13.62-4.414 4.129-2.569 8.092-4.987 12.008-7.476 17.408-11.060 32.896-24.164 44.492-41.472 11.084-16.536 17.678-34.835 20.48-54.391 1.631-11.359 1.982-22.898 2.972-34.347 0.1-1.171 0.498-2.404 1.076-3.432 3.072-5.48 7.334-9.662 12.473-13.478 29.464-21.888 46.891-51.48 53.205-87.367 7.121-40.548-4.622-76.132-30.26-107.639-0.057-0.081-0.109-0.156-0.175-0.223-7.206-6.343-10.14-14.805-12.862-23.723-4.731-15.46-10.572-30.573-15.507-45.971-1.887-5.879-2.399-12.193-3.916-18.219-11.714-46.284-38.808-80.493-80.981-102.803-0.261-0.133-0.507-0.28-0.787-0.346-7.964-2.162-14.137-7.201-20.461-12.198-23.177-18.351-49.019-31.981-76.591-42.453-1.982-0.749-3.935-1.991-5.461-3.456-19.674-18.882-41.937-33.626-68.452-40.718-50.223-13.445-95.763-3.428-136.543 28.653-2.939 2.309-6.016 4.565-8.472 7.334-5.291 5.959-12.188 8.894-19.361 11.738-28.297 11.188-54.063 26.676-77.326 46.322-0.649 0.54-1.337 1.171-2.114 1.413-15.91 4.94-29.198 14.308-41.496 25.102-23.016 20.215-39.239 44.919-47.578 74.52-1.944 6.884-2.849 14.066-4.575 21.025-1.171 4.717-2.892 9.316-4.442 13.938-5.343 15.986-10.515 32.009-12.937 48.773-0.18 1.218-1.033 2.46-1.858 3.442-15.426 18.47-26.463 39.111-31.369 62.824-5.879 28.388-2.465 55.832 8.5 82.475 7.86 19.124 18.991 36.077 34.057 50.318 3.333 3.153 6.751 6.381 10.638 8.751 5.248 3.2 7.604 8.467 10.856 13.122 0.521 0.754 0.436 2.015 0.446 3.044 0.128 14.127 1.422 28.136 4.295 41.979 7.675 36.997 27.885 65.242 59.624 85.438 2.584 1.645 5.21 3.228 7.841 4.802 2.603 1.555 5.234 3.063 7.96 4.646-5.172 1.764-10.178 3.243-15.009 5.167-7.969 3.181-13.227 8.984-15.336 17.384-0.45 1.787-1.484 2.356-3.063 2.849-7.083 2.209-13.843 5.073-19.418 10.207-4.058 3.75-6.694 8.405-8.277 13.601-0.991 3.262-2.84 5.746-5.177 8.097-4.39 4.409-8.898 8.747-12.833 13.544-3.556 4.333-5.063 9.581-4.471 15.351 0.095 0.83-0.787 2.005-1.536 2.645-5.48 4.66-10.316 9.785-12.35 16.924-1.313 4.613-1.294 9.306-0.218 13.947 0.45 1.948-0.014 3.124-1.55 4.39-5.983 4.935-10.619 10.78-11.748 18.778-0.479 3.361 0.047 6.585 2.133 9.273 1.081 1.384 0.73 2.209-0.009 3.499-2.223 3.902-4.518 7.794-6.334 11.89-3.423 7.723-2.489 15.17 2.408 22.035 1.252 1.754 1.313 3.143 0.474 5.186-3.39 8.211-4.399 16.602 0.484 24.59 4.973 8.145 13.113 10.743 22.054 11.425 2.764 0.209 5.566-0.095 8.334 0.043 0.896 0.043 2.1 0.484 2.593 1.157 5.637 7.708 13.739 10.871 22.722 11.989 5.395 0.673 10.899 0.408 16.351 0.687 1.048 0.052 2.342 0.356 3.063 1.033 7.012 6.665 15.445 7.41 24.439 6.206 1.095-0.147 2.65-0.104 3.371 0.545 8.756 7.851 18.75 8.823 29.563 5.632 1.47-0.431 3.020-0.806 4.295-1.588 2.527-1.545 4.703-1.228 7.083 0.36 2.769 1.844 5.727 3.404 8.6 5.092 2.11 0 4.229 0 6.334 0 5.694-1.882 11.43-3.641 17.052-5.713 1.963-0.721 3.631-1.1 5.713-0.46 6.888 2.11 13.748 2.484 20.276-1.351 2.555-1.503 5.082-3.053 7.623-4.58 2.28-1.37 4.599-1.816 7.367-1.451 7.538 0.991 14.843-0.066 21.001-4.84 4.224-3.271 8.055-7.064 11.895-10.795 1.56-1.512 3.077-2.489 5.272-2.143 5.798 0.91 10.695-1.218 15.204-4.556 3.39-2.503 6.879-4.892 10.046-7.661 14.758-12.928 24.239-29.445 31.621-47.313 2.238-5.428 4.148-10.989 6.4-16.991 0.574 1.285 0.953 2.11 1.304 2.953 6.481 15.801 13.952 31.061 24.007 44.952 7.822 10.804 16.863 20.371 28.407 27.297 1.1 0.659 2.555 1.432 3.674 1.233 6.722-1.185 11.563 1.531 15.455 6.741 0.787 1.062 1.934 1.849 2.897 2.773 6.684 6.4 14.715 9.619 23.841 8.439 5.082-0.659 9.017 0.834 12.767 3.593 7.77 5.708 16.109 6.419 25.093 3.608 1.304-0.412 3.029-0.28 4.333 0.199 5.196 1.896 10.306 4.030 15.436 6.073 2.47-0.019 4.959-0.019 7.452-0.019zM798.108 833.138c2.47 12.179 10.373 21.134 17.285 31.279-14.184 0-27.724 0-41.259 0-0.119 0.228-0.242 0.45-0.36 0.673 3.276 3.157 6.556 6.31 10.074 9.69-5.684 2.423-11.193 3.134-16.882 2.982-8.955-0.242-17.271-3.328-25.723-5.722-2.010-0.569-3.845-0.844-5.063 1.128-1.242 2.010 0.166 3.437 1.498 4.731 2.332 2.28 4.722 4.523 7.092 6.779-0.109 0.18-0.223 0.356-0.322 0.536-12.407-3.356-24.813-6.713-37.945-10.259 0.185 1.911-0.095 3.669 0.593 4.907 1.029 1.882 2.669 3.456 4.139 5.068 2.010 2.204 4.11 4.328 6.177 6.485-0.185 0.218-0.36 0.441-0.536 0.659-14.308-4.143-28.61-8.277-40.87-17.109-3.655 3.432-4.082 6.002-1.678 9.856 1.427 2.295 3.020 4.489 4.954 7.339-13.592-4.708-24.002-13.241-35.447-21.139-2.039 2.797-4.769 5.092-5.433 7.884-0.687 2.821 0.678 6.135 1.214 9.766-4.897-3.409-10.169-6.424-14.63-10.354-4.537-3.996-8.277-8.889-12.35-13.369-5.537 4.082-3.835 10.145-3.295 15.929-0.261 0.095-0.517 0.194-0.777 0.294-8.813-10.126-17.64-20.252-26.88-30.867-1.517 4.992-2.807 9.211-4.12 13.525-0.37-0.318-0.749-0.602-1.086-0.924-16.057-15.332-28.269-33.228-35.845-54.149-4.233-11.695-6.362-23.708-4.020-36.129 3.063-16.185 13.175-26.7 27.345-33.877 53.267 47.72 148.091 83.556 174.298 92.416-1.455-0.882-2.944-1.707-4.452-2.503-30.26-15.948-60.046-32.716-88.519-51.736-23.656-15.801-46.298-32.853-65.64-53.921-1.214-1.313-1.508-2.385-1.019-4.015 2.167-7.111 5.224-13.772 9.733-19.731 10.193-13.492 24.22-21.148 39.974-26.145 15.194-4.826 30.881-6.656 46.72-7.32 5.779-0.247 11.563-0.038 17.873-0.038-1.038 0.868-1.669 1.408-2.304 1.925-1.873 1.503-3.845 2.887-5.585 4.527-3.167 2.991-2.778 4.485 1.427 5.869 1.176 0.389 2.408 0.716 3.641 0.815 7.547 0.616 15.113 1.043 22.647 1.764 6.286 0.602 12.388 2.029 18.465 5.57-5.732 0.54-9.861 2.887-13.222 7.196 14.241 3.987 27.804 8.898 40.159 16.915-4.613-0.218-9.548-1.835-12.335 3.883 14.028 7.471 29.175 12.933 41.609 24.415-6.381 0.427-12.279-0.564-17.517 3.755 5.381 4.703 10.482 9.178 15.592 13.639 5.054 4.418 10.14 8.823 15.204 13.236-5.751-0.498-11.231-4.077-16.777 0.929 5.205 4.878 10.316 9.505 15.232 14.331 4.859 4.774 9.278 9.932 12.345 16.668-7.187-1.436-13.843-4.124-21.092 0.517 9.813 9.463 21.433 17.1 24.657 31.422-5.722 0.005-11.269 0.005-16.962 0.005zM288.597 831.128c0.066 0.147 0.119 0.294 0.18 0.441 0.896-0.237 1.811-0.417 2.688-0.711 61.928-20.594 119.846-48.654 170.112-91.046 0.569-0.479 1.82-0.782 2.432-0.488 10.871 5.3 19.883 12.615 24.946 23.96 5.694 12.762 4.878 25.828 1.147 38.822-6.732 23.462-19.826 43.193-36.361 60.828-0.284 0.299-0.697 0.46-1.157 0.749-1.019-11.767-1.019-11.767-3.575-13.17-8.045 11.212-17.593 21.101-28.037 31.237 0.36-3.859 0.796-6.808 0.863-9.761 0.071-3.214-1-5.954-3.513-7.073-8.287 7.993-16.251 15.673-24.206 23.348-0.232-0.123-0.469-0.247-0.697-0.37 1.82-6.258 1.783-12.032-4.015-16.412-5.409 3.783-10.667 7.817-16.275 11.288-5.632 3.489-11.61 6.419-17.436 9.591-0.223-0.294-0.446-0.583-0.668-0.872 1.545-2.238 3.138-4.433 4.608-6.718 2.389-3.721 1.911-6.542-1.839-9.832-11.743 9.472-25.083 15.497-40.424 16.721 2.498-2.385 5.267-4.399 7.789-6.694 1.436-1.313 2.93-2.92 3.537-4.693 0.417-1.218-0.351-3.138-1.166-4.366-0.36-0.55-2.195-0.469-3.233-0.194-10.268 2.702-20.508 5.509-30.758 8.277-0.83 0.223-1.678 0.384-2.517 0.574 0.943-1.356 2.195-2.1 3.148-3.124 1.342-1.46 2.844-2.972 3.556-4.75 0.446-1.109-0.066-3.039-0.853-4.058-0.545-0.716-2.423-0.977-3.47-0.664-12.169 3.636-24.548 5.134-37.224 3.845-1.925-0.199-3.831-0.616-6.158-1 3.556-4.793 6.789-9.14 10.396-14.004-14.222 0-27.833 0-41.685 0 2.74-5.3 5.48-10.131 7.765-15.161 2.309-5.087 4.181-10.373 6.466-16.142-6.381 0-11.899 0-17.417 0-0.232-0.27-0.465-0.536-0.692-0.806 2.47-3.437 4.475-7.372 7.519-10.197 4.532-4.21 9.809-7.604 14.725-11.416 2.043-1.583 3.944-3.337 6.101-5.172-6.187-3.295-8.657-3.39-20.693-1.010 6.737-13.321 18.816-22.125 27.444-34.56-6.007 0-11.179 0-16.621 0 10.33-8.258 20.314-16.247 31.028-24.813-3.266-0.953-5.831-1.972-8.5-2.408-2.759-0.455-5.608-0.351-9.093-0.526 13.137-9.913 27.136-16.981 41.316-24.211-5.158-3.243-10.766-3.361-16.337-3.911 12.677-11.544 29.397-14.023 44.302-20.665-3.432-4.053-7.505-6.428-12.644-7.239 3.987-1.256 7.922-2.546 11.951-3.025 7.988-0.943 16.038-1.375 24.045-2.181 1.612-0.161 3.167-1.038 4.741-1.583-0.891-1.73-1.536-3.65-2.731-5.139-1.038-1.299-2.669-2.138-4.063-3.148-0.796-0.574-1.65-1.071-3.124-2.020 1.811-0.19 2.821-0.308 3.84-0.403 10.747-1 21.471-0.683 32.161 0.583 16.204 1.915 31.815 5.85 46.127 13.98 15.644 8.884 26.743 21.542 31.924 39.016 0.488 1.64 0.526 2.882-0.834 4.361-14.905 16.147-31.777 29.999-49.583 42.757-29.018 20.783-59.8 38.694-91.16 55.628-6.021 3.257-12.056 6.49-18.095 9.733zM651.596 340.3c3.684 0.332 8.296 0.559 12.843 1.223 10.804 1.574 21.158 4.75 30.232 10.965 14.232 9.752 23.789 23.196 29.582 39.315 6.443 17.925 7.41 36.324 4.158 54.988-4.622 26.444-15.621 49.863-34.351 69.201-20.233 20.888-44.715 33.019-74.212 33.422-22.225 0.303-41.78-6.936-57.278-23.026-22.993-23.86-29.649-52.964-25.112-85.011 3.537-25.036 15.474-46.194 32.474-64.417 21.732-23.296 48.759-35.565 81.664-36.66zM492.961 452.949c-0.327 23.239-4.148 40.699-14.217 56.268-15.019 23.215-36.39 35.627-64.228 36.072-18.92 0.303-36.3-5.4-52.333-15.071-19.935-12.023-36.798-27.34-47.422-48.427-13.487-26.766-18.323-54.865-11.359-84.442 8.571-36.376 38.059-61.051 75.316-62.587 23.173-0.953 44.146 6.196 62.554 19.963 34.313 25.662 49.73 61.051 51.688 98.223zM619.994 258.076c-0.436 27.842-9.638 49.46-27.852 66.977-21.39 20.575-47.483 29.729-76.805 29.649-32.337-0.090-59.586-11.999-80.588-36.935-27.349-32.479-27.529-79.441-0.668-111.957 33.825-40.951 94.004-51.74 139.463-24.311 29.525 17.816 45.284 44.331 46.45 76.577zM786.669 253.739c-0.156 2.56-0.289 7.457-0.759 12.316-1.545 15.654-5.101 30.725-12.369 44.838-2.66 5.167-6.424 8.846-11.89 10.529-3.527 1.086-7.239 2.020-10.899 2.119-8.917 0.261-17.119-2.74-24.988-6.684-15.104-7.576-27.823-18.304-39.618-30.165-18.498-18.593-35.020-38.609-44.928-63.327-7.742-19.304-13.397-39.021-11.269-60.084 1.877-18.522 9.538-27.895 26.927-32.54 15.322-4.101 30.483-2.498 45.222 2.622 30.943 10.743 53.205 32.095 70.025 59.383 10.999 17.844 14.379 37.935 14.545 60.994zM244.091 252.506c0-1.92-0.076-3.849 0.019-5.76 0.095-1.915 0.303-3.826 0.517-5.722 2.28-20.613 8.619-40.073 19.769-57.377 13.658-21.191 32.185-37.414 55.737-47.265 15.692-6.566 31.919-9.5 48.849-6.177 6.277 1.242 12.525 2.816 16.905 8.254 6.172 7.652 8.548 16.645 9.022 26.145 1.256 25.093-5.509 48.299-18.399 69.509-14.341 23.585-33.887 42.259-57.865 56.002-12.094 6.931-25.026 11.714-39.305 11.036-13.862-0.659-24.382-6.585-30.104-19.778-3.996-9.221-5.324-18.916-5.144-28.866zM516.617 550.334c0.028-0.242 0.066-0.484 0.095-0.725 11.221 1.261 22.519 2.062 33.64 3.892 14.455 2.375 28.231 6.978 40.491 15.351 6.011 4.105 11.231 9.026 14.706 15.516 6.713 12.606 4.267 24.486-3.437 35.669-7.832 11.383-18.612 19.47-30.535 26.121-15.241 8.495-31.483 14.104-48.915 15.422-23.334 1.764-45.028-4.058-65.271-15.497-12.151-6.86-22.993-15.313-30.734-27.155-7.737-11.823-7.405-22.741 0.839-34.167 6.025-8.344 13.985-14.412 22.917-19.266 20.636-11.226 42.961-15.223 66.204-15.161zM510.971 36.617c7.874 0.981 15.867 1.389 23.59 3.063 23.723 5.125 44.369 16.616 62.658 32.284 5.992 5.129 11.326 11.169 16.185 17.399 4.452 5.703 3.963 10.97-0.759 16.474-2.593 3.006-5.675 5.788-9.026 7.889-16.398 10.311-34.816 14.483-53.713 17.043-11.648 1.574-23.324 1.18-35.020 0.716-25.657-1.029-50.569-5.604-74.468-15.118-7.846-3.119-15.388-6.945-21.433-13.065-5.656-5.727-6.229-10.965-2.067-17.82 0.891-1.47 1.877-2.892 2.968-4.229 11.392-14.028 25.756-24.23 41.809-32.175 15.488-7.671 31.796-12.098 49.275-12.459zM751.886 433.289c0.825-29.279 5.039-57.993 14.483-85.826 3.243-9.543 6.983-18.916 13.388-26.842 2.342-2.906 5.362-5.551 8.595-7.4 4.030-2.299 8.415-2.029 11.785 1.73 4.276 4.769 8.946 9.325 12.454 14.62 16.1 24.32 22.011 51.195 18.271 80-4.371 33.692-21.86 58.818-50.887 76.269-6.035 3.631-13.705 1.631-16.825-2.778-2.622-3.698-5.044-7.742-6.519-11.999-4.2-12.198-4.57-24.984-4.745-37.774zM266.671 434.849c-0.441 5.423-0.849 14.142-1.944 22.789-0.991 7.803-2.849 15.479-7.751 21.978-3.759 4.983-10.193 6.68-15.028 3.759-22.775-13.758-39.505-32.612-48.119-58.069-8.277-24.472-7.633-48.981 0.564-73.358 5.248-15.602 13.492-29.355 25.676-40.628 2.351-2.181 4.902-2.735 7.917-2.185 4.015 0.735 6.888 3.247 9.453 6.13 5.49 6.191 9.017 13.53 11.928 21.172 11.695 30.616 16.156 62.554 17.304 98.413zM647.41 640.474c-8.666-0.896-17.351-1.669-25.998-2.74-4.76-0.593-5.841-2.432-3.74-6.85 1.915-4.030 4.267-7.941 6.983-11.492 11.842-15.554 25.832-29.122 40.197-42.283 21.234-19.456 43.221-37.978 67.778-53.205 6.831-4.238 13.786-8.325 21.826-9.927 5.831-1.166 8.396 0.844 8.595 6.694 0.351 10.771-0.322 21.471-2.446 32.052-5.286 26.363-17.702 48.446-39.452 64.721-21.822 16.318-46.834 22.504-73.742 23.031zM257.024 532.352c0-3.162-0.166-6.338 0.047-9.491 0.265-4.115 2.285-5.95 6.334-5.694 2.167 0.137 4.499 0.441 6.405 1.384 7.358 3.646 14.981 6.974 21.784 11.506 36.324 24.225 68.84 52.907 97.811 85.547 4.907 5.537 8.932 11.961 12.719 18.361 2.593 4.385 1.133 6.684-3.617 7.419-18.261 2.821-36.475 2.968-54.599-1.081-24.908-5.566-46.104-17.455-62.35-37.4-16.716-20.504-23.822-44.449-24.533-70.552z" />
<glyph unicode="&#xe91a;" glyph-name="hex" d="M819.503 428.032c11.278 0 22.552 0 33.83 0 25.756 0 25.756 39.936 0 39.936-11.273 0-22.547 0-33.825 0l11.529-19.963-11.534-19.973zM665.425 753.683c-5.566-9.643-11.136-19.285-16.702-28.928h22.537l11.79-20.428c5.623 9.733 11.236 19.465 16.858 29.198 12.9 22.343-21.618 42.449-34.484 20.158zM324.091 733.525c5.623-9.733 11.24-19.465 16.858-29.198l11.795 20.428h22.528c-5.566 9.643-11.136 19.285-16.702 28.928-12.866 22.291-47.379 2.185-34.479-20.158zM170.667 428.032c11.273 0 22.552 0 33.825 0l-11.529 19.973 11.525 19.963c-11.273 0-22.547 0-33.82 0-25.752 0-25.752-39.936 0-39.936zM699.909 162.475c-5.623 9.733-11.236 19.461-16.858 29.198l-11.79-20.428h-22.537c5.57-9.643 11.136-19.285 16.702-28.933 12.866-22.281 47.384-2.181 34.484 20.162zM358.575 142.322c5.566 9.643 11.136 19.285 16.702 28.933h-22.533l-11.795 20.428c-5.623-9.733-11.24-19.465-16.858-29.198-12.9-22.353 21.613-42.453 34.484-20.162zM276.466 678.737c-16.616 16.635-26.866 39.5-26.866 64.868 0.005 25.368 10.249 48.232 26.866 64.868 16.635 16.616 39.5 26.866 64.868 26.866 25.368-0.005 48.232-10.249 64.868-26.866 16.616-16.635 26.866-39.5 26.866-64.868 0-6.466-0.687-12.767-1.953-18.849h21.694c1.029 6.13 1.593 12.425 1.593 18.849-0.005 62.45-50.617 113.062-113.067 113.067-62.45-0.005-113.062-50.617-113.067-113.067 0.005-48.744 30.839-90.273 74.074-106.159l10.88 18.849c-14.014 4.508-26.562 12.264-36.755 22.443zM170.667 356.267c-25.368 0.005-48.232 10.249-64.868 26.871-16.616 16.635-26.866 39.495-26.866 64.863 0.005 25.368 10.249 48.232 26.866 64.868 16.635 16.616 39.5 26.866 64.868 26.866 23.732-0.005 45.208-9.050 61.506-23.817l10.913 18.897c-19.617 16.389-44.862 26.254-72.42 26.259-62.45-0.009-113.062-50.617-113.067-113.071 0.005-62.445 50.617-113.057 113.067-113.067 27.558 0.005 52.802 9.875 72.42 26.254l-10.913 18.897c-16.299-14.763-37.774-23.813-61.506-23.817zM433.067 152.396c-0.005-25.368-10.249-48.232-26.866-64.863-16.635-16.621-39.5-26.866-64.868-26.871-25.368 0.005-48.232 10.249-64.868 26.871-16.616 16.635-26.866 39.495-26.866 64.863 0.005 25.368 10.249 48.232 26.866 64.868 10.193 10.183 22.741 17.939 36.75 22.443l-10.88 18.854c-43.231-15.886-74.069-57.415-74.074-106.164 0.005-62.445 50.617-113.057 113.067-113.067 62.45 0.009 113.057 50.622 113.067 113.067 0 6.424-0.564 12.719-1.593 18.854h-21.694c1.271-6.082 1.958-12.383 1.958-18.854zM589.805 743.604c0.005 25.368 10.249 48.232 26.866 64.868 16.635 16.616 39.5 26.866 64.868 26.866 25.368-0.005 48.232-10.249 64.868-26.866 16.616-16.635 26.861-39.5 26.866-64.868-0.005-25.368-10.249-48.232-26.866-64.868-9.965-9.951-22.191-17.55-35.821-22.101l10.871-18.83c42.743 16.137 73.145 57.401 73.15 105.794-0.005 62.45-50.617 113.062-113.067 113.067-62.45-0.005-113.062-50.617-113.067-113.067 0-6.424 0.564-12.719 1.593-18.849h21.694c-1.266 6.087-1.953 12.388-1.953 18.854zM852.205 561.071c-27.198 0-52.148-9.609-71.656-25.614l10.894-18.863c16.209 14.369 37.395 23.14 60.762 23.144 25.368-0.005 48.232-10.249 64.868-26.866 16.616-16.635 26.861-39.5 26.866-64.868-0.005-25.368-10.249-48.232-26.866-64.863-16.635-16.621-39.5-26.866-64.868-26.871-23.372 0.005-44.553 8.78-60.762 23.144l-10.894-18.863c19.503-16 44.459-25.609 71.656-25.614 62.45 0.009 113.057 50.622 113.067 113.067-0.009 62.445-50.617 113.057-113.067 113.067zM746.401 217.263c16.616-16.635 26.861-39.5 26.866-64.868-0.005-25.368-10.249-48.232-26.866-64.863-16.635-16.621-39.5-26.866-64.868-26.871-25.368 0.005-48.232 10.249-64.868 26.871-16.616 16.631-26.861 39.495-26.866 64.863 0 6.466 0.687 12.767 1.953 18.854h-21.689c-1.033-6.135-1.598-12.425-1.598-18.854 0.005-62.445 50.617-113.057 113.067-113.067 62.45 0.009 113.057 50.622 113.067 113.067-0.005 48.393-30.407 89.662-73.15 105.794l-10.871-18.83c13.634-4.546 25.861-12.141 35.821-22.097z" />
<glyph unicode="&#xe91b;" glyph-name="ponics" d="M831.73 111.028h-10.686v2.911c0 91.71-35.361 175.308-93.16 237.876-65.636-66.75-156.914-108.193-257.697-108.193-99.925 0-192.915 39.86-261.845 112.242l-2.807 2.944 2.835 4.471c68.93 72.358 161.911 112.209 261.826 112.209 100.783 0 192.057-41.444 257.688-108.193 57.804 62.573 93.16 146.167 93.16 237.867 0 2.005-0.019 4.020-0.057 6.025l10.686 0.194c0.038-2.072 0.057-4.148 0.057-6.22v-494.132zM735.275 359.557c40.804-44.008 70.812-98.148 85.774-158.189v316.378c-14.967-60.046-44.971-114.181-85.774-158.189zM219.629 359.557c66.517-67.916 155.292-105.249 250.558-105.249 97.925 0 186.619 40.334 250.325 105.249-63.706 64.915-152.396 105.244-250.316 105.244-95.27 0-184.050-37.333-250.567-105.244zM323.864 375.339c0-4.941-4.005-8.946-8.946-8.946s-8.946 4.005-8.946 8.946c0 4.941 4.005 8.946 8.946 8.946s8.946-4.005 8.946-8.946zM314.918 361.050c-7.879 0-14.289 6.409-14.289 14.289s6.409 14.293 14.289 14.293c7.879 0 14.289-6.414 14.289-14.293s-6.409-14.289-14.289-14.289zM314.918 378.946c-1.986 0-3.603-1.617-3.603-3.608 0-1.986 1.617-3.603 3.603-3.603s3.603 1.617 3.603 3.603c0 1.991-1.617 3.608-3.603 3.608zM474.553 559.711h-10.686c0 90.33 16.645 175.289 46.862 239.223 30.82 65.209 72.306 101.125 116.817 101.125v-10.686c-84.361 0-152.993-147.883-152.993-329.662zM456.87 618.804h-5.343c-38.116 0-69.12 34.622-69.12 77.179v5.343h5.343c38.116 0 69.12-34.622 69.12-77.179v-5.343zM393.301 690.347c2.37-31.948 24.68-57.543 52.674-60.558-2.366 31.948-24.676 57.538-52.674 60.558zM474.553 714.439h-5.343c-34.034 0-61.72 30.886-61.72 68.85v5.343h5.343c34.034 0 61.72-30.886 61.72-68.85v-5.343zM418.418 777.6c2.337-27.316 21.324-49.157 45.212-52.134-2.342 27.321-21.324 49.161-45.212 52.134zM502.737 785.47h-5.343c-24.377 0-44.212 22.040-44.212 49.133v5.343h5.343c24.377 0 44.212-22.040 44.212-49.133v-5.343zM464.261 828.696c2.195-16.256 13.303-29.179 27.397-31.981-2.195 16.261-13.303 29.184-27.397 31.981zM524.696 843.226l-5.229 1.109c-8.429 1.787-15.535 7.111-20.015 14.99-4.361 7.671-5.698 16.887-3.769 25.951l1.109 5.224 5.224-1.109c17.124-3.636 27.795-22.002 23.784-40.936l-1.105-5.229zM505.51 876.677c0.076-4.305 1.171-8.448 3.228-12.070 1.835-3.228 4.309-5.798 7.215-7.552-0.166 8.353-4.153 15.81-10.444 19.622zM556.98 881.783l-4.205 3.29c-6.182 4.84-6.964 14.213-1.745 20.888l3.29 4.215 4.215-3.3c6.187-4.85 6.964-14.222 1.735-20.892l-3.29-4.2zM596.243 906.994l-0.711 5.291c-0.763 5.698 3.537 11.003 9.591 11.823l5.3 0.716 0.711-5.3c0.379-2.844-0.503-5.755-2.437-7.998-1.801-2.091-4.347-3.451-7.168-3.826l-5.286-0.706zM512.356 583.462c0 0 0.005 0 0 0-11.857 0-23.362 3.205-33.275 9.273l-4.556 2.788 2.788 4.556c14.729 24.069 40.012 39.021 65.972 39.021 11.857 0 23.362-3.205 33.271-9.273l4.561-2.788-2.792-4.556c-14.729-24.064-40.007-39.021-65.967-39.021zM489.553 599.206c7.035-3.323 14.815-5.058 22.803-5.058 20.546 0 40.68 11.065 53.732 29.212-7.031 3.319-14.815 5.054-22.803 5.054-20.542 0.005-40.68-11.060-53.732-29.208zM519.476 661.295c-0.005 0 0 0 0 0-10.6 0-20.883 2.863-29.734 8.287l-4.556 2.788 2.788 4.556c13.132 21.461 35.679 34.797 58.847 34.797 10.596 0 20.878-2.863 29.734-8.287l4.561-2.788-2.792-4.556c-13.132-21.466-35.684-34.797-58.847-34.797zM500.262 676.072c5.954-2.693 12.497-4.096 19.209-4.096h0.005c17.735 0 35.124 9.439 46.554 24.96-5.954 2.693-12.501 4.096-19.214 4.096-17.73 0-35.124-9.439-46.554-24.96zM529.308 739.911v0c-7.609 0-15 2.062-21.367 5.954l-4.556 2.788 2.788 4.556c9.358 15.289 25.453 24.785 41.998 24.785 7.604 0 14.995-2.057 21.357-5.954l4.556-2.788-2.788-4.556c-9.353-15.289-25.439-24.785-41.989-24.785zM518.713 752.465c3.347-1.233 6.936-1.873 10.596-1.873 11.046 0 21.907 5.57 29.459 14.843-3.347 1.233-6.931 1.873-10.591 1.873-11.051 0-21.912-5.57-29.464-14.843zM553.7 802.366c0 0 0 0 0 0-5.49 0-10.823 1.489-15.417 4.3l-4.556 2.788 2.788 4.556c6.665 10.899 18.162 17.669 29.999 17.669 5.49 0 10.823-1.484 15.422-4.3l4.561-2.788-2.792-4.556c-6.67-10.899-18.167-17.669-30.004-17.669zM549.566 813.483c1.332-0.289 2.712-0.431 4.129-0.431 0.005 0 0.005 0 0.005 0 6.187 0 12.297 2.778 16.953 7.509-7.144 1.56-15.36-1.256-21.087-7.078zM578.024 849.005c0 0 0 0 0 0-2.508 0-4.945 0.683-7.054 1.977l-4.561 2.792 2.802 4.556c2.897 4.712 7.931 7.642 13.137 7.642 2.503 0 4.94-0.683 7.045-1.972l4.551-2.788-2.788-4.556c-2.887-4.717-7.922-7.652-13.132-7.652zM611.195 867.522v0c-4.802 0-8.913 2.93-10.231 7.296l-1.55 5.12 5.12 1.545c5.755 1.735 11.994-1.389 13.63-6.798l1.536-5.106-5.106-1.55c-1.109-0.337-2.252-0.507-3.399-0.507z" />
</font>
</defs>
</svg>
